<svg width="259" height="45" viewBox="0 0 259 45" fill="none" xmlns="http://www.w3.org/2000/svg">
                <path d="M1.98 34.812C2.892 34.764 3.516 34.56 3.852 34.2C4.188 33.816 4.368 33.3 4.392 32.652C4.44 31.98 4.464 31.224 4.464 30.384V14.832C4.464 14.352 4.476 13.896 4.5 13.464C4.524 13.008 4.548 12.6 4.572 12.24C4.14 12.264 3.708 12.288 3.276 12.312C2.844 12.336 2.412 12.36 1.98 12.384V10.8C3.252 10.776 4.56 10.764 5.904 10.764C7.248 10.74 8.616 10.728 10.008 10.728C12.336 10.728 14.292 10.992 15.876 11.52C17.46 12.048 18.672 12.828 19.512 13.86C20.352 14.892 20.808 16.176 20.88 17.712C20.928 18.648 20.784 19.632 20.448 20.664C20.136 21.672 19.536 22.632 18.648 23.544C17.784 24.432 16.56 25.152 14.976 25.704C13.392 26.256 11.364 26.532 8.892 26.532C8.796 26.532 8.616 26.532 8.352 26.532C8.088 26.532 7.836 26.52 7.596 26.496V31.716C7.596 32.364 7.584 32.928 7.56 33.408C7.56 33.864 7.536 34.248 7.488 34.56C7.872 34.536 8.244 34.512 8.604 34.488C8.964 34.464 9.324 34.452 9.684 34.452C10.068 34.428 10.44 34.404 10.8 34.38V36H1.98V34.812ZM7.596 25.02C8.052 25.068 8.436 25.104 8.748 25.128C9.084 25.128 9.48 25.128 9.936 25.128C11.304 25.128 12.552 24.864 13.68 24.336C14.808 23.784 15.708 23.004 16.38 21.996C17.052 20.988 17.388 19.788 17.388 18.396C17.388 17.268 17.208 16.308 16.848 15.516C16.488 14.7 15.972 14.052 15.3 13.572C14.652 13.068 13.872 12.708 12.96 12.492C12.048 12.252 11.04 12.132 9.936 12.132C9.096 12.132 8.508 12.312 8.172 12.672C7.86 13.032 7.68 13.536 7.632 14.184C7.608 14.808 7.596 15.552 7.596 16.416V25.02ZM31.7765 36.576C30.1205 36.576 28.6205 36.192 27.2765 35.424C25.9565 34.632 24.9125 33.528 24.1445 32.112C23.3765 30.672 22.9925 28.98 22.9925 27.036C22.9925 25.356 23.3645 23.784 24.1085 22.32C24.8765 20.856 25.9445 19.68 27.3125 18.792C28.6805 17.88 30.2645 17.424 32.0645 17.424C33.0725 17.424 34.0085 17.592 34.8725 17.928C35.7605 18.24 36.5405 18.732 37.2125 19.404C37.8845 20.052 38.4125 20.88 38.7965 21.888C39.1805 22.872 39.3725 24.036 39.3725 25.38L26.7005 25.596C26.7005 27.42 26.8925 29.028 27.2765 30.42C27.6845 31.788 28.3325 32.856 29.2205 33.624C30.1085 34.368 31.2485 34.74 32.6405 34.74C33.3845 34.74 34.1405 34.608 34.9085 34.344C35.7005 34.08 36.4325 33.72 37.1045 33.264C37.7765 32.808 38.3165 32.304 38.7245 31.752L39.5885 32.472C38.9405 33.48 38.1605 34.284 37.2485 34.884C36.3365 35.484 35.4005 35.916 34.4405 36.18C33.4805 36.444 32.5925 36.576 31.7765 36.576ZM26.8085 24.084H35.9885C35.9885 23.22 35.8565 22.392 35.5925 21.6C35.3525 20.784 34.9445 20.124 34.3685 19.62C33.7925 19.092 33.0365 18.828 32.1005 18.828C30.7085 18.828 29.5445 19.248 28.6085 20.088C27.6965 20.904 27.0965 22.236 26.8085 24.084ZM42.5762 36V34.92C43.3202 34.92 43.8362 34.74 44.1242 34.38C44.4122 33.996 44.5802 33.48 44.6282 32.832C44.6762 32.16 44.7002 31.392 44.7002 30.528L44.7362 22.32C44.7362 21.936 44.7362 21.552 44.7362 21.168C44.7602 20.784 44.8082 20.388 44.8802 19.98C44.4482 20.004 44.0162 20.028 43.5842 20.052C43.1762 20.076 42.7562 20.1 42.3242 20.124V18.612C43.3802 18.612 44.1722 18.564 44.7002 18.468C45.2522 18.372 45.6602 18.252 45.9242 18.108C46.1882 17.964 46.4042 17.808 46.5722 17.64H47.6162C47.6402 17.808 47.6522 18 47.6522 18.216C47.6762 18.432 47.7002 18.672 47.7242 18.936C47.7482 19.2 47.7602 19.5 47.7602 19.836C48.2882 19.38 48.8642 18.972 49.4882 18.612C50.1362 18.252 50.8082 17.964 51.5042 17.748C52.2242 17.532 52.9322 17.424 53.6282 17.424C55.7162 17.424 57.2402 18.084 58.2002 19.404C59.1602 20.7 59.6402 22.728 59.6402 25.488V32.184C59.6402 32.664 59.6282 33.096 59.6042 33.48C59.6042 33.84 59.5682 34.224 59.4962 34.632C59.8802 34.608 60.2522 34.596 60.6122 34.596C60.9962 34.572 61.3802 34.548 61.7642 34.524V36H54.4202V34.92C55.1642 34.92 55.6802 34.74 55.9682 34.38C56.2562 33.996 56.4242 33.48 56.4722 32.832C56.5202 32.16 56.5442 31.392 56.5442 30.528V25.488C56.5202 23.424 56.1722 21.864 55.5002 20.808C54.8522 19.752 53.8202 19.236 52.4042 19.26C51.5402 19.284 50.6882 19.512 49.8482 19.944C49.0322 20.376 48.3482 20.928 47.7962 21.6C47.8202 21.792 47.8322 22.008 47.8322 22.248C47.8322 22.488 47.8322 22.74 47.8322 23.004L47.7962 32.184C47.7962 32.664 47.7842 33.096 47.7602 33.48C47.7602 33.84 47.7242 34.224 47.6522 34.632C48.0362 34.608 48.4082 34.596 48.7682 34.596C49.1522 34.572 49.5362 34.548 49.9202 34.524V36H42.5762ZM64.2994 36V34.524L74.3434 21.6C74.7274 21.12 75.0994 20.652 75.4594 20.196C75.8434 19.716 76.1554 19.404 76.3954 19.26L69.6274 19.368C68.7394 19.368 68.0434 19.608 67.5394 20.088C67.0594 20.544 66.7114 21.156 66.4954 21.924C66.2794 22.668 66.0994 23.508 65.9554 24.444H64.8394L65.2714 18H79.3834V19.152L69.2314 32.508C68.9194 32.892 68.6434 33.228 68.4034 33.516C68.1634 33.804 67.8154 34.14 67.3594 34.524L74.3074 34.632C75.3154 34.632 76.1074 34.404 76.6834 33.948C77.2594 33.492 77.6914 32.868 77.9794 32.076C78.2674 31.284 78.4834 30.408 78.6274 29.448H79.6714L79.2394 36H64.2994ZM82.8301 34.92C83.5741 34.92 84.0901 34.74 84.3781 34.38C84.6661 33.996 84.8341 33.48 84.8821 32.832C84.9301 32.16 84.9541 31.392 84.9541 30.528V22.32C84.9541 21.936 84.9661 21.576 84.9901 21.24C85.0141 20.88 85.0501 20.46 85.0981 19.98C84.6661 20.004 84.2341 20.028 83.8021 20.052C83.3941 20.076 82.9741 20.1 82.5421 20.124V18.612C83.5981 18.612 84.4141 18.564 84.9901 18.468C85.5661 18.372 85.9981 18.252 86.2861 18.108C86.5981 17.964 86.8381 17.808 87.0061 17.64H88.0501V32.184C88.0501 32.664 88.0381 33.096 88.0141 33.48C88.0141 33.84 87.9781 34.224 87.9061 34.632C88.2901 34.608 88.6621 34.596 89.0221 34.596C89.4061 34.572 89.7901 34.548 90.1741 34.524V36H82.8301V34.92ZM86.3221 14.076C85.8181 14.076 85.3741 13.872 84.9901 13.464C84.6061 13.056 84.4141 12.552 84.4141 11.952C84.4141 11.352 84.6061 10.848 84.9901 10.44C85.3981 10.008 85.8541 9.792 86.3581 9.792C86.9101 9.792 87.3661 10.008 87.7261 10.44C88.1101 10.848 88.3021 11.352 88.3021 11.952C88.3021 12.552 88.0981 13.056 87.6901 13.464C87.3061 13.872 86.8501 14.076 86.3221 14.076ZM101.883 36.576C100.203 36.576 98.6791 36.192 97.3111 35.424C95.9431 34.632 94.8511 33.552 94.0351 32.184C93.2431 30.792 92.8471 29.208 92.8471 27.432C92.8471 25.536 93.2431 23.832 94.0351 22.32C94.8271 20.808 95.9071 19.62 97.2751 18.756C98.6431 17.868 100.179 17.424 101.883 17.424C103.563 17.424 105.087 17.832 106.455 18.648C107.823 19.44 108.915 20.52 109.731 21.888C110.547 23.256 110.955 24.816 110.955 26.568C110.955 28.416 110.547 30.108 109.731 31.644C108.939 33.156 107.859 34.356 106.491 35.244C105.123 36.132 103.587 36.576 101.883 36.576ZM102.171 35.136C103.443 35.136 104.451 34.776 105.195 34.056C105.939 33.336 106.467 32.4 106.779 31.248C107.115 30.096 107.283 28.884 107.283 27.612C107.283 26.532 107.175 25.476 106.959 24.444C106.767 23.388 106.455 22.44 106.023 21.6C105.591 20.736 105.027 20.052 104.331 19.548C103.659 19.044 102.843 18.792 101.883 18.792C100.635 18.792 99.6151 19.152 98.8231 19.872C98.0311 20.592 97.4431 21.528 97.0591 22.68C96.6991 23.832 96.5191 25.068 96.5191 26.388C96.5191 27.876 96.7231 29.292 97.1311 30.636C97.5391 31.956 98.1631 33.036 99.0031 33.876C99.8431 34.716 100.899 35.136 102.171 35.136ZM114.014 36V34.92C114.758 34.92 115.274 34.74 115.562 34.38C115.85 33.996 116.018 33.48 116.066 32.832C116.114 32.16 116.138 31.392 116.138 30.528L116.174 22.32C116.174 21.936 116.174 21.552 116.174 21.168C116.198 20.784 116.246 20.388 116.318 19.98C115.886 20.004 115.454 20.028 115.022 20.052C114.614 20.076 114.194 20.1 113.762 20.124V18.612C114.818 18.612 115.61 18.564 116.138 18.468C116.69 18.372 117.098 18.252 117.362 18.108C117.626 17.964 117.842 17.808 118.01 17.64H119.054C119.078 17.808 119.09 18 119.09 18.216C119.114 18.432 119.138 18.672 119.162 18.936C119.186 19.2 119.198 19.5 119.198 19.836C119.726 19.38 120.302 18.972 120.926 18.612C121.574 18.252 122.246 17.964 122.942 17.748C123.662 17.532 124.37 17.424 125.066 17.424C127.154 17.424 128.678 18.084 129.638 19.404C130.598 20.7 131.078 22.728 131.078 25.488V32.184C131.078 32.664 131.066 33.096 131.042 33.48C131.042 33.84 131.006 34.224 130.934 34.632C131.318 34.608 131.69 34.596 132.05 34.596C132.434 34.572 132.818 34.548 133.202 34.524V36H125.858V34.92C126.602 34.92 127.118 34.74 127.406 34.38C127.694 33.996 127.862 33.48 127.91 32.832C127.958 32.16 127.982 31.392 127.982 30.528V25.488C127.958 23.424 127.61 21.864 126.938 20.808C126.29 19.752 125.258 19.236 123.842 19.26C122.978 19.284 122.126 19.512 121.286 19.944C120.47 20.376 119.786 20.928 119.234 21.6C119.258 21.792 119.27 22.008 119.27 22.248C119.27 22.488 119.27 22.74 119.27 23.004L119.234 32.184C119.234 32.664 119.222 33.096 119.198 33.48C119.198 33.84 119.162 34.224 119.09 34.632C119.474 34.608 119.846 34.596 120.206 34.596C120.59 34.572 120.974 34.548 121.358 34.524V36H114.014Z" fill="#626262" />
                <path d="M145.734 36V34.812C146.646 34.788 147.27 34.584 147.606 34.2C147.942 33.792 148.122 33.252 148.146 32.58C148.194 31.884 148.218 31.092 148.218 30.204V15.084C148.218 14.436 148.23 13.884 148.254 13.428C148.278 12.948 148.302 12.552 148.326 12.24C147.894 12.264 147.462 12.288 147.03 12.312C146.598 12.336 146.166 12.36 145.734 12.384V10.8C147.054 10.776 148.374 10.764 149.694 10.764C151.038 10.74 152.43 10.728 153.87 10.728C156.654 10.728 158.826 11.22 160.386 12.204C161.97 13.188 162.738 14.748 162.69 16.884C162.69 17.652 162.462 18.42 162.006 19.188C161.574 19.956 160.914 20.64 160.026 21.24C159.162 21.816 158.07 22.224 156.75 22.464V22.536C159.39 22.536 161.382 23.148 162.726 24.372C164.07 25.572 164.742 27.096 164.742 28.944C164.742 30.408 164.37 31.668 163.626 32.724C162.882 33.78 161.874 34.596 160.602 35.172C159.33 35.724 157.878 36 156.246 36H145.734ZM151.242 34.56C151.626 34.584 152.082 34.608 152.61 34.632C153.162 34.632 153.666 34.632 154.122 34.632C154.602 34.632 154.914 34.632 155.058 34.632C156.906 34.632 158.394 34.176 159.522 33.264C160.674 32.328 161.25 30.96 161.25 29.16C161.25 27.696 160.962 26.556 160.386 25.74C159.81 24.924 159.054 24.348 158.118 24.012C157.182 23.676 156.162 23.508 155.058 23.508C154.338 23.508 153.678 23.52 153.078 23.544C152.502 23.544 151.926 23.568 151.35 23.616V31.752C151.35 32.4 151.338 32.952 151.314 33.408C151.314 33.864 151.29 34.248 151.242 34.56ZM151.35 22.212L153.978 22.14C155.346 22.116 156.426 21.84 157.218 21.312C158.01 20.76 158.574 20.076 158.91 19.26C159.27 18.444 159.438 17.592 159.414 16.704C159.39 15.408 159.09 14.424 158.514 13.752C157.962 13.08 157.278 12.624 156.462 12.384C155.646 12.144 154.842 12.024 154.05 12.024C153.258 12.024 152.67 12.132 152.286 12.348C151.902 12.564 151.65 12.924 151.53 13.428C151.41 13.932 151.35 14.628 151.35 15.516V22.212ZM167.451 34.92C168.195 34.92 168.711 34.74 168.999 34.38C169.287 33.996 169.455 33.48 169.503 32.832C169.551 32.16 169.575 31.392 169.575 30.528V22.32C169.575 21.936 169.575 21.552 169.575 21.168C169.599 20.784 169.647 20.388 169.719 19.98C169.287 20.004 168.855 20.028 168.423 20.052C168.015 20.052 167.595 20.064 167.163 20.088V18.612H168.279C169.311 18.612 170.019 18.516 170.403 18.324C170.811 18.108 171.147 17.88 171.411 17.64H172.455C172.503 18.024 172.539 18.504 172.563 19.08C172.587 19.632 172.611 20.34 172.635 21.204C172.995 20.604 173.487 20.016 174.111 19.44C174.735 18.864 175.431 18.384 176.199 18C176.991 17.616 177.819 17.424 178.683 17.424C179.355 17.424 179.943 17.604 180.447 17.964C180.951 18.324 181.203 18.9 181.203 19.692C181.203 19.884 181.143 20.124 181.023 20.412C180.903 20.676 180.711 20.916 180.447 21.132C180.183 21.324 179.835 21.42 179.403 21.42C178.875 21.396 178.455 21.192 178.143 20.808C177.831 20.4 177.711 19.932 177.783 19.404C177.183 19.38 176.559 19.536 175.911 19.872C175.287 20.208 174.699 20.676 174.147 21.276C173.595 21.852 173.103 22.536 172.671 23.328L172.707 32.184C172.707 32.664 172.695 33.096 172.671 33.48C172.671 33.84 172.635 34.224 172.563 34.632C172.947 34.608 173.319 34.596 173.679 34.596C174.063 34.572 174.447 34.548 174.831 34.524V36H167.451V34.92ZM191.491 36.576C189.835 36.576 188.335 36.192 186.991 35.424C185.671 34.632 184.627 33.528 183.859 32.112C183.091 30.672 182.707 28.98 182.707 27.036C182.707 25.356 183.079 23.784 183.823 22.32C184.591 20.856 185.659 19.68 187.027 18.792C188.395 17.88 189.979 17.424 191.779 17.424C192.787 17.424 193.723 17.592 194.587 17.928C195.475 18.24 196.255 18.732 196.927 19.404C197.599 20.052 198.127 20.88 198.511 21.888C198.895 22.872 199.087 24.036 199.087 25.38L186.415 25.596C186.415 27.42 186.607 29.028 186.991 30.42C187.399 31.788 188.047 32.856 188.935 33.624C189.823 34.368 190.963 34.74 192.355 34.74C193.099 34.74 193.855 34.608 194.623 34.344C195.415 34.08 196.147 33.72 196.819 33.264C197.491 32.808 198.031 32.304 198.439 31.752L199.303 32.472C198.655 33.48 197.875 34.284 196.963 34.884C196.051 35.484 195.115 35.916 194.155 36.18C193.195 36.444 192.307 36.576 191.491 36.576ZM186.523 24.084H195.703C195.703 23.22 195.571 22.392 195.307 21.6C195.067 20.784 194.659 20.124 194.083 19.62C193.507 19.092 192.751 18.828 191.815 18.828C190.423 18.828 189.259 19.248 188.323 20.088C187.411 20.904 186.811 22.236 186.523 24.084ZM209.887 36.576C208.591 36.576 207.499 36.336 206.611 35.856C205.747 35.376 205.087 34.56 204.631 33.408C204.199 32.256 203.983 30.696 203.983 28.728V22.32C203.983 21.936 203.983 21.552 203.983 21.168C204.007 20.784 204.055 20.388 204.127 19.98C203.719 20.004 203.299 20.028 202.867 20.052C202.459 20.052 202.051 20.064 201.643 20.088V18.612H202.759C203.791 18.612 204.535 18.516 204.991 18.324C205.471 18.108 205.843 17.88 206.107 17.64H207.151V28.62C207.151 30.684 207.439 32.232 208.015 33.264C208.615 34.272 209.623 34.764 211.039 34.74C211.951 34.716 212.815 34.44 213.631 33.912C214.471 33.36 215.143 32.712 215.647 31.968V22.716C215.647 22.14 215.659 21.648 215.683 21.24C215.707 20.808 215.755 20.388 215.827 19.98C215.395 20.004 214.963 20.028 214.531 20.052C214.099 20.052 213.667 20.064 213.235 20.088V18.612H214.351C215.383 18.612 216.127 18.516 216.583 18.324C217.063 18.108 217.435 17.88 217.699 17.64H218.743L218.707 31.248C218.707 31.632 218.695 32.172 218.671 32.868C218.647 33.564 218.611 34.152 218.563 34.632C218.995 34.608 219.427 34.584 219.859 34.56C220.291 34.536 220.723 34.512 221.155 34.488V36H216.007C215.935 35.592 215.875 35.208 215.827 34.848C215.803 34.488 215.779 34.152 215.755 33.84C215.011 34.584 214.111 35.232 213.055 35.784C211.999 36.312 210.943 36.576 209.887 36.576ZM232.484 36.576C230.828 36.576 229.328 36.192 227.984 35.424C226.664 34.632 225.62 33.528 224.852 32.112C224.084 30.672 223.7 28.98 223.7 27.036C223.7 25.356 224.072 23.784 224.816 22.32C225.584 20.856 226.652 19.68 228.02 18.792C229.388 17.88 230.972 17.424 232.771 17.424C233.78 17.424 234.716 17.592 235.58 17.928C236.468 18.24 237.248 18.732 237.92 19.404C238.592 20.052 239.12 20.88 239.504 21.888C239.888 22.872 240.08 24.036 240.08 25.38L227.408 25.596C227.408 27.42 227.6 29.028 227.984 30.42C228.392 31.788 229.04 32.856 229.928 33.624C230.816 34.368 231.956 34.74 233.348 34.74C234.092 34.74 234.848 34.608 235.616 34.344C236.408 34.08 237.14 33.72 237.812 33.264C238.484 32.808 239.024 32.304 239.432 31.752L240.296 32.472C239.648 33.48 238.868 34.284 237.956 34.884C237.044 35.484 236.108 35.916 235.148 36.18C234.188 36.444 233.3 36.576 232.484 36.576ZM227.516 24.084H236.696C236.696 23.22 236.564 22.392 236.3 21.6C236.06 20.784 235.652 20.124 235.076 19.62C234.5 19.092 233.744 18.828 232.808 18.828C231.416 18.828 230.252 19.248 229.316 20.088C228.404 20.904 227.804 22.236 227.516 24.084ZM243.283 34.92C244.027 34.92 244.543 34.74 244.831 34.38C245.119 33.996 245.287 33.48 245.335 32.832C245.383 32.16 245.407 31.392 245.407 30.528V22.32C245.407 21.936 245.407 21.552 245.407 21.168C245.431 20.784 245.479 20.388 245.551 19.98C245.119 20.004 244.687 20.028 244.255 20.052C243.847 20.052 243.427 20.064 242.995 20.088V18.612H244.111C245.143 18.612 245.851 18.516 246.235 18.324C246.643 18.108 246.979 17.88 247.243 17.64H248.287C248.335 18.024 248.371 18.504 248.395 19.08C248.419 19.632 248.443 20.34 248.467 21.204C248.827 20.604 249.319 20.016 249.943 19.44C250.567 18.864 251.263 18.384 252.031 18C252.823 17.616 253.651 17.424 254.515 17.424C255.187 17.424 255.775 17.604 256.279 17.964C256.783 18.324 257.035 18.9 257.035 19.692C257.035 19.884 256.975 20.124 256.855 20.412C256.735 20.676 256.543 20.916 256.279 21.132C256.015 21.324 255.667 21.42 255.235 21.42C254.707 21.396 254.287 21.192 253.975 20.808C253.663 20.4 253.543 19.932 253.615 19.404C253.015 19.38 252.391 19.536 251.743 19.872C251.119 20.208 250.531 20.676 249.979 21.276C249.427 21.852 248.935 22.536 248.503 23.328L248.539 32.184C248.539 32.664 248.527 33.096 248.503 33.48C248.503 33.84 248.467 34.224 248.395 34.632C248.779 34.608 249.151 34.596 249.511 34.596C249.895 34.572 250.279 34.548 250.663 34.524V36H243.283V34.92Z" fill="#A77257" />
                <line x1="0.00203367" y1="42.5" x2="258.002" y2="43.5494" stroke="black" />
              </svg>